<svg width="84" height="84" viewBox="0 0 84 84" fill="none" xmlns="http://www.w3.org/2000/svg">
<mask id="mask0_121_7744" style="mask-type:alpha" maskUnits="userSpaceOnUse" x="0" y="0" width="84" height="84">
<circle cx="41.7781" cy="41.9998" r="39.7781" fill="#D9D9D9" stroke="#E29909" stroke-width="4"/>
</mask>
<g mask="url(#mask0_121_7744)">
<path d="M60.2294 68.6414C61.8198 68.5073 63.3528 69.427 63.9085 70.9982L71.9372 93.0907C75.9037 103.974 78.4138 115.356 79.4102 126.91L81.4413 150.324C81.6138 152.298 80.1575 154.041 78.1647 154.214C76.1911 154.386 74.4473 152.93 74.2749 150.937L72.2437 127.523C71.2857 116.601 68.9096 105.833 65.1731 95.5433L57.1444 73.4508C56.4737 71.5922 57.4318 69.5229 59.2905 68.8522C59.5971 68.7373 59.9037 68.6798 60.2103 68.6414H60.2294Z" fill="#FDC5C5"/>
<path d="M73.2208 92.6308C77.2064 103.629 79.7549 115.126 80.7705 126.795L82.2076 143.273C82.2459 143.675 81.9392 144.039 81.5368 144.078L73.1632 144.806C72.7608 144.844 72.3968 144.537 72.3585 144.135L70.9213 127.657C69.9824 116.85 67.6447 106.197 63.9273 96.0222L55.9178 73.9298C55.477 72.6843 55.5154 71.3431 56.0711 70.1551C56.6268 68.9671 57.6232 68.0474 58.8687 67.6067C59.2711 67.4534 59.7118 67.3576 60.1333 67.3193C62.3561 67.1277 64.4448 68.4689 65.2112 70.5575L73.2399 92.6499L73.2208 92.6308Z" fill="#4C2D47"/>
<path d="M24.3775 68.6417C22.7871 68.5075 21.2541 69.4273 20.6984 70.9985L12.6697 93.0909C8.70323 103.974 6.19313 115.356 5.19672 126.91L3.1656 150.324C2.99314 152.298 4.44935 154.042 6.44216 154.214C8.41581 154.386 10.1596 152.93 10.332 150.938L12.3632 127.523C13.3212 116.601 15.6973 105.833 19.4338 95.5435L27.4625 73.4511C28.1332 71.5924 27.1751 69.5231 25.3164 68.8525C25.0098 68.7375 24.7033 68.68 24.3967 68.6417H24.3775Z" fill="#FDC5C5"/>
<path d="M11.4059 92.6309C7.40116 103.629 4.87182 115.126 3.85625 126.795L2.41913 143.273C2.38081 143.675 2.68735 144.039 3.08974 144.078L11.4635 144.806C11.8659 144.844 12.2299 144.538 12.2682 144.135L13.7054 127.657C14.6443 116.85 17.0011 106.197 20.6993 96.0223L28.728 73.9299C29.1879 72.6844 29.1305 71.3432 28.5748 70.1552C28.0191 68.9672 27.0227 68.0475 25.7772 67.6068C25.3748 67.4536 24.9341 67.3578 24.5125 67.3194C22.2898 67.1278 20.2011 68.4499 19.4347 70.5576L11.4059 92.65V92.6309Z" fill="#4C2D47"/>
<path d="M36.4306 97.0572C36.4306 97.0572 36.4306 97.1338 36.4498 97.1721C36.5072 97.402 36.5648 97.9577 36.6031 98.7816C36.8713 103.783 36.9863 119.705 37.0438 147.948H47.5443C47.6018 119.705 47.7168 103.783 47.9851 98.7816C48.0234 97.9577 48.0808 97.402 48.1383 97.1721C48.1383 97.1338 48.1383 97.0955 48.1575 97.0572C48.2724 96.4248 48.5025 95.7159 48.8282 95.1602C50.3611 92.2478 55.0174 89.7569 52.1623 74.5623C50.8593 67.5686 49.9396 64.7903 49.1923 63.6598C49.1156 63.5449 49.0389 63.449 48.9622 63.3532C48.8856 63.2574 48.8089 63.1999 48.7323 63.1424C48.464 62.9508 48.215 62.9125 47.9851 62.8933H36.6797C36.5455 62.8933 36.4114 62.9509 36.2772 62.9892C36.2198 63.0083 36.1623 63.0275 36.1049 63.0658C36.009 63.1233 35.9132 63.1808 35.8174 63.2383C35.7791 63.2766 35.7407 63.2957 35.7024 63.3341C35.6641 63.3532 35.645 63.3916 35.6066 63.4107C35.5491 63.4682 35.5108 63.5449 35.4533 63.6023C35.4341 63.6407 35.415 63.6598 35.3959 63.6789C35.3959 63.6789 35.3959 63.6981 35.3767 63.7173C35.3575 63.7556 35.3384 63.8131 35.3001 63.8514C34.8402 64.6561 34.5144 65.9974 33.9588 68.0285C28.1145 89.0479 34.1121 92.037 35.7791 95.1985C36.124 95.7542 36.3348 96.4631 36.4498 97.0955L36.4306 97.0572Z" fill="#4F4068"/>
<path d="M53.0242 64.6175C52.4494 64.0044 51.9894 63.4679 51.6445 63.008C50.993 62.1458 49.9583 61.6284 48.8853 61.6284H35.7021C34.6098 61.6284 33.5943 62.1458 32.9428 63.008C32.5979 63.4679 32.138 64.0235 31.5632 64.6175C31.5249 64.6558 31.5057 64.6941 31.4674 64.7325C32.5979 64.5025 33.8242 64.3109 35.1272 64.1385C35.2039 63.9469 35.2805 63.7744 35.338 63.6786C35.3571 63.6403 35.3764 63.6211 35.3955 63.5828C35.453 63.5062 35.5104 63.4295 35.5871 63.3529C35.8745 63.0655 36.2386 62.8738 36.641 62.8355H47.9464C48.2146 62.8738 48.4638 62.9122 48.6937 63.0846C48.8661 63.1996 49.0195 63.372 49.1919 63.6211C49.2877 63.7552 49.3643 63.9277 49.4601 64.1193C50.7631 64.2918 51.9895 64.4834 53.12 64.7133C53.0817 64.675 53.0434 64.6366 53.0242 64.5983V64.6175Z" fill="#65465E"/>
<path d="M52.6604 71.7071C52.7753 72.8567 52.5453 74.0064 52.028 75.0027C51.3765 76.2482 50.4375 77.2638 49.3261 77.9727L48.1189 78.7391C46.3561 79.8505 44.919 81.4791 43.9417 83.4335L42.2938 86.7866L40.646 83.4335C39.6879 81.4791 38.2316 79.8313 36.4688 78.7391L35.2616 77.9727C34.131 77.2638 33.2112 76.229 32.5597 75.0027C32.0423 74.0064 31.8125 72.8567 31.9275 71.7071C32.2149 68.8138 33.6327 66.342 35.6639 64.8092C37.6759 64.5792 39.8986 64.426 42.2938 64.426C44.689 64.426 46.9118 64.5601 48.9238 64.8092C50.9741 66.3612 52.3921 68.833 52.6604 71.688V71.7071Z" fill="#C7B8C3"/>
<path d="M43.3472 62.9507H42.3317V62.9699H41.2778C38.6718 62.8549 36.1616 63.6214 34.0347 65.0201C34.5712 64.9435 35.1269 64.8668 35.6825 64.7902C37.6945 64.5603 39.9173 64.407 42.3125 64.407C44.7077 64.407 46.9305 64.5411 48.9425 64.7902C49.5173 64.8668 50.0538 64.9243 50.5903 65.0201C48.4634 63.6022 45.9532 62.855 43.3472 62.9316V62.9507Z" fill="#F3F0F3"/>
<path d="M47.2377 65.0581C47.2377 67.779 45.0341 70.0017 42.294 70.0017C39.5538 70.0017 37.3502 67.7981 37.3502 65.0581C37.3502 62.3181 39.5538 60.1147 42.294 60.1147C45.0341 60.1147 47.2377 62.3181 47.2377 65.0581Z" fill="#FDC5C5"/>
<path d="M42.2938 75.0796C39.1705 75.0796 36.6411 72.5503 36.6411 69.4271V53.3512C36.6411 50.228 39.1705 47.6987 42.2938 47.6987C45.4172 47.6987 47.9465 50.228 47.9465 53.3512V69.4271C47.9465 72.5503 45.4172 75.0796 42.2938 75.0796Z" fill="#FDC5C5"/>
<path d="M42.2938 47.6987C39.1705 47.6987 36.6411 50.228 36.6411 53.3512V61.6287C38.4423 62.2418 40.3393 62.5867 42.2938 62.5867C44.2483 62.5867 46.1453 62.2418 47.9465 61.6287V53.3512C47.9465 50.228 45.4172 47.6987 42.2938 47.6987Z" fill="#F2A5AB"/>
<path d="M64.1192 72.2054C64.1192 74.1981 62.5096 75.8077 60.5168 75.8077C58.524 75.8077 56.9144 74.1981 56.9144 72.2054C56.9144 70.2127 58.524 68.6032 60.5168 68.6032C62.5096 68.6032 64.1192 70.2127 64.1192 72.2054Z" fill="#FDC5C5"/>
<path d="M27.6544 72.2054C27.6544 74.1981 26.0448 75.8077 24.052 75.8077C22.0592 75.8077 20.4497 74.1981 20.4497 72.2054C20.4497 70.2127 22.0592 68.6032 24.052 68.6032C26.0448 68.6032 27.6544 70.2127 27.6544 72.2054Z" fill="#FDC5C5"/>
<path d="M60.0183 81.1153C59.9992 78.7393 61.0339 76.4783 62.8542 74.9455C63.1991 74.6581 63.4866 74.294 63.7165 73.8725C64.6363 72.1097 63.9657 69.9637 62.222 69.044C61.9154 68.8907 54.5764 65.0777 42.313 65.0777C30.0496 65.0777 22.7106 68.8907 22.404 69.044C20.6603 69.9637 19.9897 72.1288 20.9095 73.8725C21.1394 74.294 21.4268 74.6581 21.7717 74.9455C23.592 76.4783 24.6268 78.7393 24.6077 81.1153C24.6077 82.8397 24.6269 84.6409 24.6269 86.5186C24.6269 90.1017 25.355 93.4932 26.6388 96.4631C29.3598 105.315 30.2603 112.386 25.2783 123.518C24.1478 126.047 21.0053 129.784 21.0053 136.816C21.0053 155.842 22.2316 158.123 42.313 158.123C62.3944 158.123 63.6207 155.842 63.6207 136.816C63.6207 129.784 60.4974 126.047 59.3477 123.518C54.3657 112.386 55.2471 105.315 57.9872 96.4631C59.271 93.4932 59.9991 90.1017 59.9991 86.5186C59.9991 84.66 60.0375 82.8397 60.0183 81.1153Z" fill="#FDC5C5"/>
<path d="M61.1484 89.412C61.1484 93.7998 57.6035 97.3445 53.2155 97.3445H31.3903C27.0023 97.3445 23.4574 93.7998 23.4574 89.412C23.4574 85.0241 27.0023 81.4793 31.3903 81.4793H53.2155C57.6035 81.4793 61.1484 85.0241 61.1484 89.412Z" fill="#FDC5C5"/>
<path d="M35.3767 65.4225C35.0126 65.4608 34.6677 65.5183 34.3036 65.5566C32.7324 67.0895 31.6593 69.2547 31.4294 71.6881C31.3144 72.8378 31.5444 74.0066 32.0618 75.0029C32.6941 76.2484 33.633 77.2639 34.7635 77.9729L35.8557 78.6626C32.215 74.1982 33.8821 68.5266 35.3767 65.4225Z" fill="#F2A5AB"/>
<path d="M52.5458 75.0029C53.0632 74.0066 53.2738 72.8569 53.178 71.7073C52.9481 69.2355 51.875 67.0895 50.3038 65.5566C49.9397 65.5183 49.5948 65.4608 49.2307 65.4225C50.7445 68.5266 52.4116 74.1982 48.7517 78.6626L49.8439 77.9729C50.9745 77.2639 51.8943 76.2292 52.5458 75.0029Z" fill="#F2A5AB"/>
<path d="M64.6177 71.2091C64.6369 71.3049 64.656 71.4198 64.6751 71.5156C64.6943 71.6689 64.7135 71.8222 64.7327 71.9755C64.7327 72.0713 64.7327 72.1479 64.7327 72.2054C64.7327 72.2437 64.7327 72.3587 64.7327 72.3779C64.7327 72.512 64.7326 72.6078 64.6943 72.7227C64.6943 72.8952 64.6369 73.0868 64.5985 73.2784L64.5602 73.4126C64.4644 73.7 64.3878 73.9107 64.2728 74.1215C64.2728 74.1407 64.2153 74.2173 64.1961 74.2556C64.1003 74.4281 63.9661 74.6389 63.8128 74.8496C63.6212 75.0796 63.4296 75.2712 63.2188 75.4436C61.5518 76.8615 60.6129 78.9309 60.6321 81.1152C60.6321 82.169 60.6321 83.2421 60.6321 84.3534V85.1582C61.3794 86.4611 61.7817 87.9365 61.7817 89.431C61.7817 90.1016 61.7051 90.7723 61.5326 91.462C61.2452 92.6117 60.7662 93.6464 60.0572 94.5853L59.9997 94.6619C59.8847 94.8152 59.7506 94.9685 59.6356 95.1026L59.559 95.1984C59.4057 95.3709 59.2715 95.505 59.1374 95.6392L59.0416 95.7349C59.0416 95.7349 58.735 96.3864 58.5818 96.7313C55.8033 105.756 55.1902 112.692 59.9423 123.288C60.1722 123.806 60.4979 124.361 60.8428 125.013C62.2033 127.446 64.2536 131.125 64.2536 136.854C64.2536 137.371 64.2536 137.87 64.2536 138.368C44.5555 138.099 42.4477 129.286 42.4477 129.286C42.4477 129.286 40.3208 138.176 20.4118 138.368C20.4118 137.87 20.4118 137.371 20.4118 136.854C20.4118 131.125 22.4621 127.446 23.8225 125.013C24.1866 124.361 24.4933 123.806 24.7232 123.288C29.4753 112.692 28.8621 105.775 26.0453 96.6738C25.9304 96.4055 25.6237 95.7541 25.6237 95.7541L25.5088 95.6583C25.3746 95.5241 25.2596 95.4092 25.1255 95.2751L25.0105 95.141C24.8764 94.9877 24.7615 94.8536 24.6274 94.6811L24.5699 94.6045C23.8609 93.6656 23.3626 92.6117 23.0944 91.4812C22.9219 90.7914 22.8262 90.1208 22.8262 89.4502C22.8262 87.9556 23.2286 86.4994 23.9759 85.1965V84.4109C23.9759 83.2995 23.9567 82.2073 23.9759 81.1535C23.9759 78.9883 23.0562 76.9382 21.4083 75.5011C20.7568 74.9646 20.2777 74.2364 20.0286 73.4317C19.9519 73.1634 19.9136 72.9336 19.8944 72.7036C19.8944 72.627 19.8944 72.5503 19.8944 72.4928C19.8944 72.3779 19.8752 72.3204 19.8752 72.2437C19.8752 72.1671 19.8752 72.0904 19.8752 71.9946C19.8752 71.8222 19.8944 71.7072 19.9136 71.6114C19.9328 71.4582 19.9711 71.324 20.0094 71.1707C20.0477 71.0366 20.0861 70.9217 20.1435 70.7875C20.1819 70.6726 20.2394 70.5576 20.2777 70.4618C20.3543 70.3085 20.431 70.1743 20.5268 70.0211C20.5651 69.9444 20.6226 69.887 20.6609 69.8295C20.7759 69.6571 20.91 69.5038 21.0633 69.3505L21.1782 69.2355C21.3315 69.0822 21.504 68.9481 21.6764 68.814L21.8106 68.7181C21.9447 68.6032 22.0406 68.5649 22.1172 68.5074C22.3472 68.3733 26.6393 66.1698 34.0357 65.0776C31.7363 66.5913 29.8776 68.8523 28.7471 71.6306C27.8465 73.8341 27.3292 76.2292 27.2334 78.6434L27.0417 83.1654C27.0417 83.2804 27.0992 83.357 27.195 83.3953C27.2908 83.4145 27.3866 83.3954 27.4249 83.2804L28.268 81.575C28.9579 80.1955 30.1076 79.1799 31.4681 78.7009C32.3304 78.4135 33.2501 78.4519 34.0741 78.8159L35.5878 79.4865C37.6956 80.4062 39.4776 81.9966 40.7039 84.0852L42.3327 86.8252L43.9422 84.0852C45.1686 82.0158 46.9699 80.4062 49.0585 79.4865L50.5722 78.8159C51.4153 78.4519 52.3159 78.4135 53.1782 78.7009C54.5386 79.1608 55.6884 80.1955 56.3782 81.575L57.2212 83.2804C57.2787 83.3762 57.3745 83.4337 57.4703 83.3953C57.5662 83.357 57.6237 83.2612 57.6045 83.1654L57.4129 78.6434C57.298 76.2292 56.7998 73.8533 55.8992 71.6306C54.7495 68.8523 52.8908 66.5913 50.6106 65.0776C58.007 66.1698 62.2991 68.3924 62.529 68.5074C62.6249 68.5649 62.7015 68.6224 62.7973 68.6798L62.8739 68.7373C63.1614 68.9289 63.3339 69.0822 63.5063 69.2546C63.7362 69.4846 63.8896 69.6762 64.0045 69.8486L64.0811 69.9636C64.2153 70.1552 64.3111 70.3277 64.3878 70.5384C64.4261 70.5959 64.4452 70.6725 64.4836 70.7492C64.541 70.9216 64.5986 71.0941 64.6369 71.2666L64.6177 71.2091Z" fill="#E9E3E8"/>
<path d="M40.6653 84.0469C39.439 81.9775 37.6569 80.368 35.5491 79.4483L34.0354 78.7776C33.2114 78.4136 32.2917 78.3753 31.4294 78.6627C30.069 79.1225 28.9193 80.1572 28.2295 81.5368L27.3864 83.2421L30.6055 81.8242C31.7935 81.2877 33.1731 81.3835 34.2845 82.035L42.2749 86.7868L40.6462 84.0469H40.6653Z" fill="#D9CED6"/>
<path d="M56.359 81.5368C55.6692 80.1572 54.5194 79.1417 53.1589 78.6627C52.2966 78.3753 51.3769 78.4136 50.553 78.7776L49.0392 79.4483C46.9315 80.368 45.1495 81.9583 43.9231 84.0469L42.2943 86.7868L50.2847 82.035C51.3961 81.3644 52.7758 81.2877 53.9638 81.8242L57.1829 83.2421L56.3398 81.5368H56.359Z" fill="#D9CED6"/>
<path d="M56.3584 81.5369C55.6686 80.1573 54.5188 79.1418 53.1583 78.6627C52.296 78.3753 51.3955 78.4136 50.5523 78.7777L49.0386 79.4483C46.95 80.3681 45.1488 81.9584 43.9225 84.0469L42.3129 86.7869L43.9607 83.4338C44.9188 81.4794 46.3751 79.8316 48.138 78.7394L49.3451 77.973C50.4757 77.264 51.3955 76.2293 52.047 75.003C52.5644 74.0066 52.7751 72.857 52.6793 71.7073C52.3918 68.8141 50.9931 66.3423 48.9428 64.8094C49.5177 64.8861 50.0542 64.9436 50.5907 65.0394C52.8901 66.5531 54.7488 68.8141 55.8793 71.5924C56.7799 73.7959 57.2972 76.191 57.3931 78.6053L57.5846 83.1272C57.5846 83.2422 57.5272 83.3188 57.4506 83.3572C57.3548 83.3763 57.259 83.3572 57.2015 83.2422L56.3584 81.5369Z" fill="#F3F0F3"/>
<path d="M35.2618 77.973L36.469 78.7394C38.2319 79.8507 39.669 81.4794 40.6462 83.4338L42.2941 86.7869L40.6654 84.0469C39.4391 81.9776 37.657 80.3681 35.5492 79.4483L34.0355 78.7777C33.2115 78.4136 32.2918 78.3753 31.4295 78.6627C30.069 79.1226 28.9194 80.1573 28.2295 81.5369L27.3864 83.2422C27.3481 83.338 27.2331 83.3955 27.1565 83.3572C27.0607 83.3188 27.0032 83.2231 27.0032 83.1272L27.1947 78.6053C27.3097 76.191 27.808 73.815 28.7086 71.5924C29.8583 68.8141 31.7169 66.5531 33.9971 65.0394C34.5336 64.9628 35.0894 64.8861 35.6451 64.8094C33.614 66.3615 32.1768 68.8333 31.9085 71.6882C31.7936 72.8379 32.0235 74.0066 32.5409 75.003C33.1732 76.2485 34.1121 77.264 35.2427 77.973H35.2618Z" fill="#F3F0F3"/>
<path d="M36.6028 98.7815C36.5645 97.9576 36.507 97.4019 36.4495 97.172C36.4495 97.1337 36.4495 97.0954 36.4303 97.057C35.7788 93.5889 32.3489 91.9986 31.6591 85.2348C29.2639 76.0951 32.3873 67.6643 35.0316 64.0813C33.8052 64.2345 32.6555 64.4261 31.5633 64.6369C25.4507 65.8057 22.0016 67.6451 21.7908 67.7601C19.3573 69.0439 18.4184 72.0904 19.6831 74.5239C20.5837 76.325 23.1513 77.2064 23.1321 81.1152C23.1321 82.0541 23.1321 83.0313 23.1321 84.0276C23.1321 84.5833 23.0172 85.1007 22.8064 85.5988C22.2891 86.7676 22.0017 88.0515 22.0017 89.4119C22.0017 91.8645 22.9406 94.0871 24.4927 95.7541C24.8184 96.099 25.0866 96.5014 25.2591 96.9421C26.3704 100.563 27.3861 104.472 27.3861 108.726C27.3861 112.98 26.2938 117.655 23.9369 122.867C23.0938 124.821 20.6411 127.906 19.798 133.233C19.1657 136.107 18.6483 140.955 18.2268 146.818C18.2076 147.105 18.3034 147.393 18.4951 147.603C18.6867 147.814 18.974 147.929 19.2615 147.929H35.9513C36.2195 147.929 36.4878 147.814 36.6986 147.622C36.8902 147.431 37.0051 147.163 37.0051 146.875C36.9477 119.284 36.8327 103.687 36.5645 98.7432L36.6028 98.7815Z" fill="#4C2D47"/>
<path d="M64.7519 133.252C63.928 127.925 61.456 124.84 60.6129 122.886C58.2752 117.674 57.1639 113.152 57.1639 108.745C57.1639 104.338 58.1794 100.563 59.2908 96.9612C59.4824 96.5205 59.7507 96.1181 60.0573 95.7733C61.5902 94.1063 62.5483 91.8836 62.5483 89.431C62.5483 88.0706 62.2609 86.7868 61.7435 85.618C61.5136 85.1198 61.3985 84.5833 61.4177 84.0468C61.4177 83.0505 61.4177 82.0733 61.4177 81.1344C61.3794 77.2256 63.9663 76.3442 64.8669 74.5431C66.1507 72.1096 65.1926 69.0631 62.759 67.7793C62.5483 67.6643 59.1184 65.8249 52.9866 64.6561C51.9136 64.4453 50.7639 64.2537 49.5376 64.1004C52.1819 67.7026 55.3244 76.1717 52.8909 85.3498C52.1819 92.0369 48.771 93.6273 48.1387 97.0762C48.1387 97.1146 48.1195 97.1529 48.1195 97.1912C48.062 97.4211 48.0046 97.9768 47.9663 98.8007C47.698 103.744 47.6022 119.322 47.5255 146.933C47.5255 147.201 47.6405 147.469 47.8322 147.68C48.0238 147.872 48.2921 147.987 48.5795 147.987H65.2692C65.5566 147.987 65.8441 147.872 66.0357 147.661C66.2273 147.45 66.3423 147.163 66.304 146.875C65.8824 141.012 65.3842 136.145 64.7327 133.29L64.7519 133.252Z" fill="#4C2D47"/>
<path d="M61.3782 33.8456C59.9603 33.5965 58.389 35.8191 57.8524 38.789C57.3159 41.7781 58.0249 44.4032 59.4237 44.6522C60.8417 44.9013 62.413 42.6787 62.9495 39.7088C63.486 36.7197 62.777 34.0947 61.3782 33.8456Z" fill="#F7A5AB"/>
<path d="M23.2083 33.8456C24.6262 33.5965 26.1975 35.8191 26.7341 38.789C27.2706 41.7781 26.5616 44.4032 25.1628 44.6522C23.7448 44.9013 22.1736 42.6787 21.6371 39.7088C21.1006 36.7197 21.8095 34.0947 23.2083 33.8456Z" fill="#F7A5AB"/>
<path d="M61.8767 43.6751C61.8001 43.2152 61.5126 42.8512 61.1486 42.8512C60.7845 42.8512 60.4971 43.2152 60.4204 43.6751C60.2096 45.0163 59.9796 45.1505 59.9796 45.802C59.9796 46.7025 60.4971 47.4498 61.1486 47.4498C61.8001 47.4498 62.3174 46.7025 62.3174 45.802C62.3174 45.1505 62.0875 44.9972 61.8767 43.6751Z" fill="#D9CED6"/>
<path d="M24.2433 43.6749C24.1666 43.215 23.8792 42.851 23.5151 42.851C23.1511 42.851 22.8636 43.215 22.787 43.6749C22.5762 45.0161 22.3463 45.1503 22.3463 45.8018C22.3463 46.7023 22.8636 47.4496 23.5151 47.4496C24.1666 47.4496 24.684 46.7023 24.684 45.8018C24.684 45.1503 24.4541 44.997 24.2433 43.6749Z" fill="#D9CED6"/>
<path d="M60.6703 36.1831C60.6703 23.2879 57.3553 12.8261 42.2943 12.8261C27.2332 12.8261 23.9183 23.2879 23.9183 36.1831C23.9183 49.0784 32.1386 59.5401 42.2943 59.5401C52.4499 59.5401 60.6703 49.0784 60.6703 36.1831Z" fill="#FDC5C5"/>
<path d="M48.5405 47.9097C48.5405 47.9097 46.7968 49.8449 42.313 49.8449C37.8484 49.8449 36.1621 48.0055 36.0855 47.9097C35.7597 47.5265 35.2041 47.4882 34.8209 47.7948C34.4376 48.1205 34.38 48.6761 34.7058 49.0593C34.8016 49.1743 36.9094 51.6461 42.313 51.6461C47.7166 51.6461 49.8435 49.1743 49.9201 49.0593C50.2267 48.6761 50.1884 48.1205 49.8052 47.8139C49.4219 47.4882 48.8663 47.5457 48.5405 47.9097Z" fill="#D63E39"/>
<path d="M52.8705 41.0115C53.6753 41.0115 54.3459 40.3601 54.3459 39.5361V38.6164C54.3459 37.8116 53.6945 37.141 52.8705 37.141C52.0466 37.141 51.395 37.7925 51.395 38.6164V39.5361C51.395 40.3409 52.0466 41.0115 52.8705 41.0115Z" fill="#532442"/>
<path d="M30.2412 38.6164V39.5361C30.2412 40.3409 30.8926 41.0115 31.7166 41.0115C32.5405 41.0115 33.1921 40.3601 33.1921 39.5361V38.6164C33.1921 37.8116 32.5405 37.141 31.7166 37.141C30.8926 37.141 30.2412 37.7925 30.2412 38.6164Z" fill="#532442"/>
<path d="M56.7031 34.8994C54.3845 32.3126 50.054 33.0408 49.8624 33.0599C49.5366 33.1174 49.3259 33.4239 49.3833 33.7305C49.4408 34.0563 49.7474 34.267 50.0539 34.2095C50.0923 34.2095 53.9438 33.5773 55.8216 35.685C55.9366 35.8191 56.0898 35.8766 56.2623 35.8766C56.3964 35.8766 56.5497 35.8191 56.6456 35.7233C56.8947 35.5125 56.8947 35.1293 56.6839 34.8994H56.7031Z" fill="#44243B"/>
<path d="M34.5331 34.2096C34.8589 34.2671 35.1462 34.0563 35.2037 33.7306C35.2612 33.4049 35.0504 33.1175 34.7247 33.06C34.5331 33.0217 30.2217 32.3127 27.884 34.8994C27.6732 35.1294 27.6924 35.5126 27.9223 35.7233C28.0373 35.8191 28.1715 35.8766 28.3056 35.8766C28.4589 35.8766 28.6313 35.8192 28.7463 35.685C30.6433 33.5965 34.4756 34.2096 34.5331 34.2096Z" fill="#44243B"/>
<path d="M51.3376 42.5063C50.3604 42.238 49.3639 42.7745 49.0764 43.7517C48.789 44.7289 49.3447 45.7445 50.3028 46.0319C50.8968 46.2043 51.6441 46.6642 51.7591 47.0091C51.9891 47.6606 52.5447 48.0821 53.1579 48.1971C53.4645 48.2545 53.7903 48.2354 54.0969 48.1204C55.055 47.7755 55.5531 46.7217 55.2082 45.7828C54.3842 43.4643 51.625 42.6021 51.3184 42.5255L51.3376 42.5063Z" fill="#FAAEB4"/>
<path d="M33.2492 42.5063C34.2264 42.238 35.2228 42.7745 35.5103 43.7517C35.7977 44.7289 35.242 45.7445 34.2839 46.0319C33.6899 46.2043 32.9426 46.6642 32.8276 47.0091C32.5976 47.6606 32.042 48.0821 31.4288 48.1971C31.1222 48.2545 30.7965 48.2354 30.4899 48.1204C29.5318 47.7755 29.0336 46.7217 29.3785 45.7828C30.2025 43.4643 32.9617 42.6021 33.2683 42.5255L33.2492 42.5063Z" fill="#FAAEB4"/>
<path d="M29.6853 22.3107C35.2039 20.4904 41.6614 20.2605 42.2937 16.3517C42.9069 20.2414 49.3835 20.4904 54.9021 22.3107C60.229 24.0543 64.9427 27.0435 63.8505 33.0025C64.0996 32.0828 64.2146 31.2397 64.138 30.4924C62.4901 13.1327 49.0003 9.51128 45.8003 9.51128C43.75 9.51128 42.6961 10.4885 42.2937 11.1591C41.8913 10.4885 40.8374 9.51128 38.7871 9.51128C35.5871 9.51128 22.0974 13.1327 20.4495 30.4924C20.3729 31.2397 20.4878 32.0828 20.7369 33.0025C19.6447 27.0626 24.3584 24.0735 29.6853 22.3107Z" fill="#5A3A4E"/>
<path d="M23.9175 36.1832C23.9175 35.0336 23.9366 33.903 23.9941 32.7917C24.8181 19.2258 42.2743 23.2879 42.2743 16.3708C41.6611 20.2605 35.1845 20.5096 29.666 22.3299C24.3391 24.0735 19.6252 27.0626 20.7174 33.0216C21.2348 34.9185 22.4228 37.1029 24.0707 39.4597C23.9557 38.4058 23.8983 37.3137 23.8983 36.2215L23.9175 36.1832Z" fill="#735465"/>
<path d="M54.9023 22.3105C49.3838 20.4902 42.9263 20.2603 42.2939 16.3515C42.2939 23.2877 59.7501 19.2256 60.5741 32.7915C60.6316 33.9028 60.6508 35.0333 60.6508 36.183C60.6508 37.3326 60.5933 38.3673 60.4783 39.4211C62.1454 37.0643 63.3142 34.88 63.8316 33.0023C64.9238 27.0624 60.2101 24.0733 54.8832 22.3105H54.9023Z" fill="#735465"/>
<path d="M32.1387 87.1509C32.0045 86.7485 31.9088 86.3078 31.8129 85.8479C28.9962 76.0568 32.656 66.9554 35.3962 63.6022C35.5111 63.4298 35.5494 63.2382 35.4919 63.0466C35.4345 62.855 35.3195 62.6825 35.147 62.6058L35.0513 62.5484C34.3231 62.1651 33.4416 62.3759 32.9434 63.0274C32.5985 63.4872 32.1387 64.0429 31.5638 64.6369C31.4489 64.7519 31.3339 64.886 31.1998 65.0009C30.8548 65.3458 30.5674 65.7482 30.3375 66.1698C30.2417 66.3422 30.1459 66.5338 30.0309 66.7254C29.5902 67.511 29.092 68.3732 28.5746 69.178C27.7315 70.5001 26.8117 71.7264 25.9303 72.4928C25.662 72.7228 25.5087 73.0485 25.5087 73.3934C25.5087 73.7383 25.6237 74.0832 25.8728 74.3323C27.4057 75.9035 29.4752 78.0495 29.4752 78.0495L25.8536 81.92C25.5087 82.2841 25.4129 82.8205 25.6045 83.2612C26.3518 85.0623 28.4213 89.5652 31.3147 91.6154C34.9938 94.2213 35.7985 95.2942 36.4692 97.172C35.4728 92.8225 34.553 94.547 32.1387 87.1317V87.1509Z" fill="#65465E"/>
<path d="M58.735 81.92L55.1134 78.0495C55.1134 78.0495 57.1637 75.9035 58.7158 74.3323C58.9649 74.0832 59.0799 73.7383 59.0799 73.3934C59.0799 73.0485 58.9074 72.7228 58.6583 72.4928C57.796 71.7264 56.8764 70.5001 56.0141 69.178C55.4776 68.3732 54.9985 67.511 54.5578 66.7254C54.4428 66.5338 54.3469 66.3422 54.2511 66.1698C54.0212 65.7482 53.7337 65.3458 53.3888 65.0009C53.2547 64.8668 53.1398 64.7519 53.0249 64.6369C52.45 64.0237 51.9901 63.4872 51.6452 63.0274C51.147 62.3759 50.2656 62.1651 49.5374 62.5484L49.4415 62.6058C49.2691 62.7016 49.135 62.855 49.0966 63.0466C49.0583 63.2382 49.0967 63.449 49.1925 63.6022C49.1925 63.6022 49.1925 63.6022 49.1925 63.6214V63.6022C51.9518 66.9554 55.5925 76.0568 52.7758 85.8479C52.7758 85.9054 52.7374 85.9438 52.7374 86.0013C52.6608 86.4036 52.5649 86.7868 52.4499 87.1509C50.0356 94.5661 49.1158 92.8417 48.1194 97.1912C48.7709 95.3134 49.5948 94.2404 53.2739 91.6345C56.1673 89.5843 58.256 85.0815 58.9841 83.2804C59.1757 82.8205 59.0799 82.284 58.735 81.9391V81.92Z" fill="#65465E"/>
<path d="M57.3929 78.5862C57.278 76.1719 56.7798 73.796 55.8792 71.5733C54.7295 68.795 52.8708 66.534 50.5906 65.0203C50.1882 64.7712 49.8624 64.5796 49.6325 64.4455C49.46 64.3497 49.2492 64.388 49.1343 64.5413H49.1151C49.0193 64.6946 49.0385 64.867 49.1535 64.9628C51.0888 66.5149 52.4109 68.91 52.6791 71.6691C52.7941 72.8188 52.5642 73.9876 52.0469 74.984C51.3954 76.2294 50.4564 77.2449 49.345 77.9539L48.1378 78.7203C46.375 79.8316 44.9379 81.4603 43.9606 83.4147L42.3127 86.7679L43.9224 84.0278C45.1487 81.9585 46.9499 80.349 49.0385 79.4293L50.5522 78.7586C51.3953 78.3946 52.2959 78.3562 53.1582 78.6436C54.5186 79.1035 55.6684 80.1382 56.3582 81.5178L57.2014 83.2231C57.2589 83.3189 57.3355 83.3764 57.4505 83.3381C57.5463 83.2998 57.6037 83.204 57.5845 83.1082L57.3929 78.5862Z" fill="#F3F0F3"/>
<path d="M27.1949 78.5862C27.3099 76.1719 27.8081 73.796 28.7087 71.5733C29.8584 68.795 31.717 66.534 33.9972 65.0203C34.3996 64.7712 34.7254 64.5796 34.9553 64.4455C35.1278 64.3497 35.3386 64.388 35.4535 64.5413H35.4727C35.5685 64.6946 35.5493 64.867 35.4344 64.9628C33.499 66.5149 32.1769 68.91 31.9087 71.6691C31.7937 72.8188 32.0237 73.9876 32.5411 74.984C33.1925 76.2294 34.1314 77.2449 35.2428 77.9539L36.45 78.7203C38.2129 79.8316 39.65 81.4603 40.6272 83.4147L42.2751 86.7679L40.6656 84.0278C39.4392 81.9585 37.6379 80.349 35.5493 79.4293L34.0356 78.7586C33.1925 78.3946 32.2919 78.3562 31.4296 78.6436C30.0692 79.1035 28.9195 80.1382 28.2297 81.5178L27.3866 83.2231C27.3291 83.3189 27.2333 83.3764 27.1375 83.3381C27.0416 83.2998 26.9841 83.204 26.9841 83.1082L27.1757 78.5862H27.1949Z" fill="#F3F0F3"/>
</g>
</svg>
