<svg id="_2311" data-name=" 2311" xmlns="http://www.w3.org/2000/svg" xmlns:xlink="http://www.w3.org/1999/xlink" width="616.254" height="193.816" viewBox="0 0 616.254 193.816">
  <defs>
    <clipPath id="clip-path">
      <rect id="Rectangle_1498" data-name="Rectangle 1498" width="616.254" height="193.816" fill="#f7b35b"/>
    </clipPath>
  </defs>
  <path id="Path_2196" data-name="Path 2196" d="M66.146,172.263V128.924l73.04-42.17h.019V43.374l19.774,11.941L156.8,140.5l-17.593,9.839v-47.49l-10.226,5.533v47.675l-13.764,7.7V115.829l-10.225,5.532v48.113L82.425,182.092ZM41.45,157.35V112.372L115.2,69.79h.011V28.89l13.768,8.31V80.84L55.938,123.01l.005.007h-.022v43.071Zm24.7-86.016V23.268L86.789,11.722l18.2,10.991V63.88L31.267,106.445h-.042v44.731L10.235,138.5l2.182-85.185L31.225,42.8V90.319L41.45,84.76V37.079l14.471-8.093V76.893ZM87.089,0,2.482,47.317,0,144.225l82.125,49.591L166.733,146.5l2.482-96.908Z" fill="#f7b35b"/>
  <g id="Group_2309" data-name="Group 2309">
    <g id="Group_2308" data-name="Group 2308" clip-path="url(#clip-path)">
      <text id="SOURCE4_SOLUTIONS" data-name="SOURCE4 SOLUTIONS" transform="translate(186.137 111)" fill="#f7b35b" font-size="40" font-family="Poppins-Black, Poppins" font-weight="800"><tspan x="0" y="0">SOURCE4 SOLUTIONS</tspan></text>
    </g>
  </g>
</svg>
