<svg width="84" height="84" viewBox="0 0 84 84" fill="none" xmlns="http://www.w3.org/2000/svg">
<mask id="mask0_115_10353" style="mask-type:alpha" maskUnits="userSpaceOnUse" x="0" y="-1" width="84" height="85">
<circle cx="41.9998" cy="41.7778" r="39.7781" fill="#D9D9D9" stroke="#E29909" stroke-width="4"/>
</mask>
<g mask="url(#mask0_115_10353)">
<path d="M51.6624 62.0776H31.7574V70.523H51.6624V62.0776Z" fill="#32303A"/>
<path d="M51.065 56.1759H32.2825V78.5158H51.065V56.1759Z" fill="#F0B297"/>
<path d="M51.065 56.1759V63.0463C46.3943 66.8299 40.0851 69.3735 32.2825 69.9166V56.1759H51.065Z" fill="#D1785E"/>
<path d="M51.5807 53.1616C52.4135 53.397 53.3278 53.2159 54.1062 52.8358C54.8847 52.4556 55.5364 51.8853 56.1519 51.2879C57.7722 49.7219 59.2838 47.7577 59.1662 45.549C59.13 44.8068 58.8765 44.0464 58.2972 43.5576C57.6093 42.9783 56.5592 42.9059 55.7084 43.2318C54.8575 43.5576 54.1877 44.2275 53.6989 44.9607L51.5807 53.1616Z" fill="#F0B297"/>
<path d="M31.2775 53.1615C30.4448 53.3969 29.5305 53.2158 28.7521 52.8357C27.9736 52.4555 27.3219 51.8852 26.7064 51.2878C25.0861 49.7218 23.5744 47.7576 23.6921 45.549C23.7283 44.8067 23.9818 44.0464 24.5611 43.5576C25.249 42.9782 26.299 42.9058 27.1499 43.2317C28.0008 43.5576 28.6706 44.2274 29.1594 44.9606L31.2775 53.1615Z" fill="#F0B297"/>
<path d="M54.8936 54.2299C55.5363 47.3234 57.3376 43.2953 58.451 39.3035C59.2475 36.3164 60.0531 31.2021 56.5772 26.7033C53.1375 22.0235 44.5202 19.3623 36.618 21.5981C28.6705 23.843 24.2532 28.4865 25.2217 33.7819C25.7105 36.95 26.1631 41.3311 26.6972 44.6078C27.1407 47.3234 26.308 50.048 27.3127 52.7001C29.1864 57.2532 36.4188 65.246 42.1124 65.246C46.7651 65.246 54.45 57.2532 54.8936 54.239V54.2299Z" fill="#F0B297"/>
<g style="mix-blend-mode:soft-light">
<path d="M43.1078 47.6309C43.0625 47.7666 42.9992 47.8934 42.9358 48.011C42.8724 48.1287 42.8 48.2645 42.6733 48.3278C42.5556 48.3912 42.3836 48.3459 42.2479 48.1468C42.1754 48.0472 42.1302 47.9205 42.1121 47.7666C42.094 47.6127 42.1121 47.4498 42.1664 47.2869C42.2207 47.1239 42.3203 46.9882 42.4198 46.8795C42.5285 46.78 42.6461 46.7076 42.7638 46.6714C42.9901 46.608 43.153 46.6895 43.2073 46.8071C43.2617 46.9339 43.2345 47.0787 43.2073 47.2145C43.1802 47.3502 43.153 47.486 43.0987 47.6218L43.1078 47.6309Z" fill="#F2F2F2"/>
</g>
<path d="M41.66 48.1015C41.6419 48.011 41.6148 47.9205 41.6057 47.8481C41.5967 47.7757 41.5786 47.7032 41.5695 47.6399C41.5695 47.5675 41.5514 47.4951 41.5605 47.4045C41.5605 47.314 41.5695 47.2145 41.5876 47.1149C41.6148 46.9157 41.6419 46.7076 41.6329 46.5356C41.6238 46.3636 41.5786 46.2188 41.479 46.1282C41.3794 46.0377 41.2799 46.0468 41.1803 46.1192C41.0717 46.1916 40.954 46.3364 40.8363 46.5446C40.7187 46.7528 40.5919 47.0425 40.5648 47.3955C40.5467 47.5675 40.5648 47.7576 40.601 47.9295C40.6372 48.1015 40.7006 48.2645 40.773 48.4183C40.8454 48.5722 40.9359 48.7171 41.0264 48.8438C41.1169 48.9705 41.2165 49.0882 41.307 49.1877C41.4971 49.3869 41.6691 49.5408 41.8139 49.6584C42.1126 49.8847 42.2846 49.9662 42.3842 49.8123C42.4747 49.6675 42.4657 49.4865 42.3027 49.224C42.2213 49.0882 42.1126 48.9433 41.9859 48.7533C41.9226 48.6627 41.8592 48.5632 41.8049 48.4546C41.7506 48.3459 41.7053 48.2283 41.6691 48.1106L41.66 48.1015Z" fill="#D1785E"/>
<path d="M46.5209 41.0139C47.2903 40.8328 48.0868 40.8057 48.8743 40.9052C49.6618 41.0048 50.4313 41.2492 51.1373 41.6203C51.8433 41.9915 51.5265 42.7065 50.8295 42.5346C50.1325 42.3626 49.4356 42.2268 48.7386 42.1363C48.0416 42.0458 47.3355 41.9915 46.6204 41.9824C45.9053 41.9643 45.7605 41.1949 46.5299 41.0139H46.5209Z" fill="#1A1A1A"/>
<path d="M37.0074 40.9506C36.238 40.7876 35.4324 40.7695 34.6539 40.8872C33.8755 41.0049 33.1061 41.2583 32.4091 41.6476C31.7121 42.0368 32.038 42.7428 32.7349 42.5618C33.4319 42.3717 34.1199 42.2269 34.8169 42.1182C35.5139 42.0096 36.2199 41.9463 36.935 41.9191C37.6501 41.8829 37.7768 41.1135 37.0074 40.9506Z" fill="#1A1A1A"/>
<path d="M36.2742 46.8342V44.9967C36.2561 44.1096 35.532 43.3945 34.6449 43.3945C33.7578 43.3945 33.0427 44.1277 33.0427 45.0057V46.8433C33.0608 47.7303 36.2742 47.7122 36.2652 46.8252L36.2742 46.8342Z" fill="#1A1A1A"/>
<path d="M47.3172 46.8343V44.9968C47.3353 44.1097 48.0594 43.3946 48.9465 43.3946C49.8336 43.3946 50.5487 44.1278 50.5487 45.0058V46.8433C50.5306 47.7304 47.3172 47.7123 47.3263 46.8252L47.3172 46.8343Z" fill="#1A1A1A"/>
<path d="M38.3471 53.8405C41.0898 54.9901 44.3575 54.4923 46.6748 52.6547C47.0368 52.3741 46.5299 51.8672 46.1769 52.1569C44.0497 53.8405 41.0355 54.2026 38.5372 53.1617C38.3561 53.0892 38.1479 53.2431 38.1027 53.406C38.0484 53.6142 38.1751 53.7681 38.3471 53.8405Z" fill="#A33939"/>
<path d="M30.7983 64.6665L31.4048 66.9385C32.4548 69.9437 35.1341 74.8498 41.5156 74.8498C48.7118 74.8498 51.4545 68.604 52.3054 65.8975L52.6313 64.6665C65.8831 69.645 61.8189 111.148 61.8189 111.148L61.9003 145.617H41.6786H20.3706L20.9228 111.148C20.9228 111.148 17.5374 69.645 30.7892 64.6665H30.7983Z" fill="white"/>
<path d="M37.795 73.7273L39.361 76.7234H44.1132L45.6339 73.7273L41.7145 70.5229L37.795 73.7273Z" fill="#96281B"/>
<path d="M41.7145 70.5229L46.7292 75.8001L55.3013 65.5806L49.9517 62.9194L47.9422 64.7841L41.7236 70.532L41.7145 70.5229Z" fill="#E6E7E8"/>
<path d="M33.4778 62.9194L41.7149 70.5229L36.7002 75.8001L28.1372 65.5716L33.4778 62.9194Z" fill="#E6E7E8"/>
<path d="M39.3611 77.4388L37.424 139.815L41.7146 144.558L46.0142 139.815L44.1133 77.4388H39.3611Z" fill="#96281B"/>
<path d="M7.81571 76.6783C9.11917 69.0657 17.5464 69.0657 30.7983 64.0872C30.7983 64.0872 41.7148 108.278 41.7148 108.287L52.6312 64.0872C65.8831 69.0657 74.3103 69.0657 75.6138 76.6783C77.7138 88.9707 70.6987 94.3474 70.6444 94.275C70.6444 94.275 70.0741 148.857 70.934 162.01H43.7514L41.7148 152.505L39.6781 162.01H12.4955C13.3554 148.848 12.7852 94.275 12.7852 94.275C12.7308 94.3474 5.71569 88.9707 7.81571 76.6783Z" fill="#32303A"/>
<path d="M58.5239 65.6078L58.2614 73.3924L54.3691 76.5877L57.4015 80.7244L41.8143 108.287L51.6717 62.0776L58.5239 65.6078Z" fill="#4F4C4D"/>
<path d="M24.905 65.6078L25.1675 73.3924L29.0598 76.5877L26.0364 80.7244L41.6146 108.287L31.7572 62.0776L24.905 65.6078Z" fill="#4F4C4D"/>
<path d="M23.1399 66.6306C12.8208 69.8531 5.40741 70.7763 4.30309 77.2574C2.19401 89.5498 -0.195666 103.49 -1.55344 118.434C-2.01508 137.914 -0.249977 162.2 -0.249977 162.2H10.4221C10.4855 162.1 10.6846 146.64 11.0829 129.369C13.0381 116.787 13.9614 111.22 14.0157 111.156L25.4753 74.732C25.3033 74.3609 24.0632 68.8755 23.1309 66.6397L23.1399 66.6306Z" fill="#32303A"/>
<path d="M60.8685 66.9293C71.1875 70.1517 78.601 71.075 79.7053 77.5561C81.8053 89.8485 84.2041 103.788 85.5528 118.733C86.0144 138.212 84.2493 162.498 84.2493 162.498H73.5772C73.5139 162.399 73.3147 146.938 72.9164 129.667C70.9612 117.085 70.038 111.519 69.9837 111.455L58.524 75.0307C58.696 74.6595 59.9361 69.1741 60.8685 66.9383V66.9293Z" fill="#32303A"/>
<path d="M23.2214 33.4921C22.8322 31.4011 22.6602 29.292 23.0042 27.201C23.5383 23.9514 25.584 20.7562 28.7521 19.6971C27.0232 18.5566 26.8603 15.9406 27.9374 14.1755C29.0056 12.4194 30.9607 11.3694 32.8978 10.6181C39.4423 8.09267 47.2088 8.20129 53.192 11.8401C59.1481 15.4608 62.4792 24.0329 61.1123 29.5274C59.7365 35.0218 59.139 37.8912 55.3373 37.674C51.97 37.4839 49.001 35.5106 46.4394 33.3472C43.8777 31.1929 40.0397 27.3097 37.0074 25.8614C34.6177 24.7209 31.6577 24.3316 29.259 25.2821C26.462 31.3377 27.1771 38.2805 26.8874 45.4405C26.0275 42.8335 24.7603 39.6563 24.0361 36.9408C23.7284 35.8003 23.4477 34.6416 23.2305 33.474L23.2214 33.4921Z" fill="#2C1E1C"/>
<path d="M56.9214 43.4039L56.2244 27.0383C56.2244 27.0383 58.6503 24.9835 60.1166 25.7982C62.0266 26.8482 58.0709 43.4764 56.9214 43.4039Z" fill="#2C1E1C"/>
</g>
</svg>
